<svg xmlns="http://www.w3.org/2000/svg" xmlns:xlink="http://www.w3.org/1999/xlink" width="570" height="404.77" viewBox="0 0 570 404.77">
  <defs>
    <clipPath id="clip-path">
      <rect id="Rectangle_154060" data-name="Rectangle 154060" width="362.722" height="233.458" fill="none"/>
    </clipPath>
  </defs>
  <g id="hire_fullstack_banner" transform="translate(-357.752 -150.206)">
    <g id="Group_203147" data-name="Group 203147" transform="translate(509.574 150.206)">
      <g id="Group_203145" data-name="Group 203145">
        <g id="Group_203144" data-name="Group 203144">
          <rect id="Rectangle_154055" data-name="Rectangle 154055" width="104.377" height="104.377" rx="7.779" fill="#ac87d6"/>
        </g>
      </g>
      <g id="Group_203146" data-name="Group 203146" transform="translate(22.311 32.975)">
        <path id="Path_92838" data-name="Path 92838" d="M450.69,198.2l4.434-5.322c1.873,2.514,3.94,3.794,6.4,3.794,3.2,0,4.877-1.921,4.877-5.713V174.554H454.286v-6.4h20.05v22.365c0,8.525-4.286,12.712-12.414,12.712C457.29,203.226,453.2,201.453,450.69,198.2Z" transform="translate(-450.69 -167.557)" fill="#fff"/>
        <path id="Path_92839" data-name="Path 92839" d="M466.1,199.512l2.711-6.011a20.275,20.275,0,0,0,11.38,3.6c4.729,0,6.651-1.575,6.651-3.693,0-6.456-20.051-2.022-20.051-14.831,0-5.863,4.729-10.74,14.534-10.74a23.147,23.147,0,0,1,11.971,3.055l-2.464,6.061a19.461,19.461,0,0,0-9.556-2.711c-4.731,0-6.553,1.773-6.553,3.942,0,6.355,20.051,1.97,20.051,14.631,0,5.764-4.78,10.691-14.631,10.691C474.67,203.5,469.151,201.877,466.1,199.512Z" transform="translate(-437.276 -167.833)" fill="#fff"/>
      </g>
    </g>
    <g id="Group_203153" data-name="Group 203153" transform="translate(754.72 186.571)">
      <path id="Path_92840" data-name="Path 92840" d="M591.493,359.283c20.157,14.436,97.59,10.777,114.24-6.482,4.729-4.905,11.376-16.844-5.077-26.785-10.923-6.6-12.554-2.752-22.845-9.1-4.1-2.524-13.34-12.47-.763-19.222,6.375-3.425,19.5-2.438,28.693-3.813,4.086-.612,18.372-3.766,19.581-14.165.644-5.506-3.2-14.459-15.142-15.112-2.587-.146-11.527-2.967-11.389-8.716,0,0,1.392-11.344,13.939-9.017,0,0,28.991,3.365,28.01-14.446-.215-3.943-2.928-9.578-15-9.052,0,0-12.771-1.7-7.981-10.433,0,0,1.261-1.642,9.129-6.976,0,0,29.024-16.64,8.014-32.173-5.53-4.088-16.418-8.8-26.942,5.492,0,0-8.774,17.813-14.642,8.647-3.753-5.857-11.2-21.467-26.05-11.932-2.4,1.541-8.884,10.588,2.136,25.831,2.357,3.264,6.751,11.707,2.851,17.533-.713,1.064-12.83,16.408-24.531-8.068-3.255-6.8-20.43-19.82-30.375-4.331-9.593,14.941-1.809,33.937,4.714,43.023,8.293,11.552,8.523,23.848.982,25.883-4.333,1.171-11.651-1.959-13.458-8.274-2.471-8.635-5.753-31.729-29.834-23.306-12.425,4.346-10.678,21.936-9.255,46.295C571.867,313.951,575.951,348.152,591.493,359.283Z" transform="translate(-569.508 -169.645)" fill="#93b6f8"/>
      <g id="Group_203152" data-name="Group 203152" transform="translate(17.537 9.201)">
        <g id="Group_203148" data-name="Group 203148" transform="translate(7.726)">
          <path id="Path_92841" data-name="Path 92841" d="M583.262,344.614a.456.456,0,0,1-.067-.043.462.462,0,0,1-.088-.647c5.163-6.789,126.476-166.327,131.5-169.3a.463.463,0,0,1,.471.8c-3.895,2.3-87.545,111.593-131.234,169.062A.462.462,0,0,1,583.262,344.614Z" transform="translate(-583.013 -174.563)" fill="#fff"/>
        </g>
        <g id="Group_203149" data-name="Group 203149" transform="translate(91.743 7.031)">
          <path id="Path_92842" data-name="Path 92842" d="M649.114,212.579c-2.479-1.283-4.112-2.222-4.359-2.365l-.155-.148c-.668-1.023-16.35-25.143-16.676-31.258a.463.463,0,0,1,.924-.051c.3,5.689,15.377,29.034,16.464,30.71,1.656.941,24.14,13.578,34,10.929a.461.461,0,1,1,.239.89C671.632,223.416,656.563,216.438,649.114,212.579Z" transform="translate(-627.924 -178.322)" fill="#fff"/>
        </g>
        <g id="Group_203150" data-name="Group 203150" transform="translate(41.916 28.766)">
          <path id="Path_92843" data-name="Path 92843" d="M630.377,248.668l-.1-.131c-.314-.427-30.68-47.039-28.92-58.208a.461.461,0,1,1,.911.146c-1.594,10.119,26.1,53.735,28.66,57.387,3.006.812,46.976,12.564,56.681,9.182a.462.462,0,0,1,.3.874c-10.267,3.579-55.467-8.684-57.385-9.208Z" transform="translate(-601.289 -189.94)" fill="#fff"/>
        </g>
        <g id="Group_203151" data-name="Group 203151" transform="translate(0 74.762)">
          <path id="Path_92844" data-name="Path 92844" d="M603.175,288.2l-.086-.213c-.947-2.35-23.191-57.72-24.205-72.968a.461.461,0,1,1,.92-.062c.973,14.631,22.5,68.6,24.056,72.468,4.492,1.182,73.7,19.126,87.807,8.431a.463.463,0,1,1,.559.737c-14.863,11.271-85.814-7.528-88.828-8.334Z" transform="translate(-578.883 -214.527)" fill="#fff"/>
        </g>
      </g>
    </g>
    <g id="Group_203159" data-name="Group 203159" transform="translate(357.751 292.177)">
      <path id="Path_92845" data-name="Path 92845" d="M515.786,414.45c18.864-15.746,34.622-90.936,22.207-111.2-3.528-5.758-13.327-15.1-26.957-1.8-9.049,8.837-5.764,11.359-14.41,19.652-3.44,3.3-15.284,9.7-18.633-4.05-1.7-6.968,2.514-19.313,3.483-28.472.43-4.073.96-18.563-8.716-22.308-5.122-1.989-14.668-.524-18.266,10.764-.782,2.447-5.713,10.319-11.193,8.757,0,0-10.538-4.159-5.182-15.615,0,0,10.44-26.972-6.89-30.465-3.835-.775-9.915.425-12.414,12.134,0,0-4.808,11.829-12,5.058,0,0-1.263-1.616-4.421-10.491,0,0-8.742-31.984-28.869-15.7-5.3,4.29-12.525,13.561-1.435,27.212,0,0,14.906,12.85,4.651,16.2-6.551,2.142-23.377,5.4-17.927,22.02.881,2.684,7.949,11.157,25.313,4.376,3.717-1.448,12.91-3.562,17.529,1.629.842.948,12.547,16.389-13.845,21.525-7.333,1.429-24.1,14.667-11.711,28.059,11.945,12.921,32.106,10.18,42.445,6.183,13.144-5.079,25-2.241,25.073,5.5.045,4.447-4.778,10.689-11.288,10.85-8.9.223-31.868-2.376-29.778,22.821,1.076,13,18.386,15.7,42.108,20.4C467.418,422,501.241,426.589,515.786,414.45Z" transform="translate(-357.751 -226.097)" fill="#93b6f8"/>
      <g id="Group_203158" data-name="Group 203158" transform="translate(13.508 13.508)">
        <g id="Group_203154" data-name="Group 203154" transform="translate(5.037)">
          <path id="Path_92846" data-name="Path 92846" d="M498.07,402.193a.4.4,0,0,1-.058.054.456.456,0,0,1-.642-.077c-5.229-6.641-128.087-162.712-129.688-168.268a.458.458,0,1,1,.881-.253c1.24,4.308,85.268,111.746,129.526,167.956A.456.456,0,0,1,498.07,402.193Z" transform="translate(-367.665 -233.318)" fill="#fff"/>
        </g>
        <g id="Group_203155" data-name="Group 203155" transform="translate(0 8.664)">
          <path id="Path_92847" data-name="Path 92847" d="M403.009,265.438c-1.85,2.058-3.156,3.392-3.354,3.594l-.18.11c-1.149.387-28.188,9.43-34.135,8.22a.458.458,0,1,1,.181-.9c5.532,1.126,31.677-7.528,33.557-8.154,1.313-1.353,19.031-19.779,18.943-29.9a.457.457,0,1,1,.915-.007C419.008,246.534,408.564,259.253,403.009,265.438Z" transform="translate(-364.972 -237.949)" fill="#fff"/>
        </g>
        <g id="Group_203156" data-name="Group 203156" transform="translate(8.471 34.554)">
          <path id="Path_92848" data-name="Path 92848" d="M432.957,305.107l-.148.058c-.488.195-52.758,17.725-63.034,13.258a.457.457,0,0,1,.365-.838c9.311,4.048,58.043-11.662,62.183-13.213,1.527-2.683,23.741-41.938,22.911-52.089a.458.458,0,1,1,.913-.075c.879,10.74-22.131,51.048-23.111,52.758Z" transform="translate(-369.5 -251.788)" fill="#fff"/>
        </g>
        <g id="Group_203157" data-name="Group 203157" transform="translate(42.149 64.227)">
          <path id="Path_92849" data-name="Path 92849" d="M464.121,351.27l-.226.028c-2.488.324-61.141,7.887-76.019,5.066a.458.458,0,1,1,.17-.9c14.277,2.707,71.408-4.52,75.5-5.045,2.249-4.013,36.685-65.941,29.934-82.134a.464.464,0,0,1,.247-.6.457.457,0,0,1,.6.245c7.116,17.065-28.572,80.449-30.094,83.139Z" transform="translate(-387.503 -267.65)" fill="#fff"/>
        </g>
      </g>
    </g>
    <path id="Path_92850" data-name="Path 92850" d="M588.63,205.711V191.473h-7.962a27.467,27.467,0,0,0-2.793-6.729l5.635-5.635-10.068-10.066-5.633,5.635a27.491,27.491,0,0,0-6.731-2.795v-7.962H546.842v7.962a27.444,27.444,0,0,0-6.729,2.795l-5.635-5.635L524.41,179.109l5.635,5.635a27.472,27.472,0,0,0-2.793,6.729H519.29v14.238h7.962a27.471,27.471,0,0,0,2.793,6.729l-5.635,5.635,10.068,10.066,5.635-5.633a27.435,27.435,0,0,0,6.729,2.791v7.964h14.236V225.3a27.483,27.483,0,0,0,6.731-2.791l5.633,5.633,10.068-10.066-5.635-5.635a27.466,27.466,0,0,0,2.793-6.729Zm-34.67,5.229a12.348,12.348,0,1,1,12.349-12.349A12.347,12.347,0,0,1,553.96,210.94Z" transform="translate(141.157 11.942)" fill="#93b6f8"/>
    <path id="Path_92851" data-name="Path 92851" d="M588.741,176.549v-7.118H584.76a13.749,13.749,0,0,0-1.4-3.365l2.817-2.817-5.032-5.032-2.817,2.815a13.736,13.736,0,0,0-3.365-1.4v-3.981h-7.118v3.981a13.736,13.736,0,0,0-3.365,1.4l-2.817-2.815-5.032,5.032,2.816,2.817a13.816,13.816,0,0,0-1.4,3.365h-3.981v7.118h3.981a13.816,13.816,0,0,0,1.4,3.365l-2.816,2.815,5.032,5.034,2.817-2.817a13.744,13.744,0,0,0,3.365,1.4v3.981h7.118v-3.981a13.744,13.744,0,0,0,3.365-1.4l2.817,2.817,5.032-5.034-2.817-2.815a13.749,13.749,0,0,0,1.4-3.365Zm-17.336,2.615a6.174,6.174,0,1,1,6.175-6.175A6.175,6.175,0,0,1,571.405,179.164Z" transform="translate(171.511 4.745)" fill="#93b6f8"/>
    <g id="Group_203164" data-name="Group 203164" transform="translate(416.48 264.756)">
      <g id="Group_203161" data-name="Group 203161">
        <rect id="Rectangle_154056" data-name="Rectangle 154056" width="381.93" height="269.872" rx="6.464" transform="translate(43.369)" fill="#0b055b"/>
        <g id="Group_203160" data-name="Group 203160" transform="translate(0 255.282)">
          <path id="Path_92852" data-name="Path 92852" d="M756.667,352.7H389.145s5.084,5.614,20.526,5.614H837.8c15.444,0,20.526-5.614,20.526-5.614Z" transform="translate(-389.145 -343.722)" fill="#6376cc"/>
          <rect id="Rectangle_154057" data-name="Rectangle 154057" width="469.176" height="8.976" transform="translate(0.001)" fill="#d4dafd"/>
          <path id="Path_92853" data-name="Path 92853" d="M562.636,348.49h-65.7a4.1,4.1,0,0,0,4.1,4.1h57.5A4.1,4.1,0,0,0,562.636,348.49Z" transform="translate(-294.871 -347.386)" fill="#6376cc"/>
        </g>
      </g>
      <g id="Group_203163" data-name="Group 203163" transform="translate(53.228 14.314)">
        <g id="Group_203162" data-name="Group 203162" clip-path="url(#clip-path)">
          <rect id="Rectangle_154058" data-name="Rectangle 154058" width="370.037" height="14.576" transform="translate(-1.85 0.346)" fill="#8897eb"/>
          <path id="Path_92854" data-name="Path 92854" d="M424.88,224.695a3.094,3.094,0,1,1-3.094-3.085,3.09,3.09,0,0,1,3.094,3.085" transform="translate(-416.641 -216.896)" fill="#bcc4f7"/>
          <path id="Path_92855" data-name="Path 92855" d="M430.3,224.695a3.094,3.094,0,1,1-3.094-3.085,3.09,3.09,0,0,1,3.094,3.085" transform="translate(-411.897 -216.896)" fill="#bcc4f7"/>
          <path id="Path_92856" data-name="Path 92856" d="M435.721,224.695a3.093,3.093,0,1,1-3.092-3.085,3.088,3.088,0,0,1,3.092,3.085" transform="translate(-407.153 -216.896)" fill="#bcc4f7"/>
          <path id="Path_92860" data-name="Path 92860" d="M0,0H370.037V218.536H0Z" transform="translate(-1.85 14.922)" fill="#bcc4f7"/>
        </g>
      </g>
    </g>
    <g id="Group_203168" data-name="Group 203168" transform="translate(655.458 308.833)">
      <g id="Group_203165" data-name="Group 203165">
        <rect id="Rectangle_154061" data-name="Rectangle 154061" width="156.404" height="184.933" fill="#fff" opacity="0.62"/>
      </g>
      <g id="Group_203166" data-name="Group 203166" transform="translate(12.03 104.003)">
        <rect id="Rectangle_154062" data-name="Rectangle 154062" width="70.687" height="3.867" fill="#fff"/>
        <rect id="Rectangle_154063" data-name="Rectangle 154063" width="49.673" height="3.867" transform="translate(79.595)" fill="#4c51ed"/>
        <rect id="Rectangle_154064" data-name="Rectangle 154064" width="49.672" height="3.867" transform="translate(65.955 31.147)" fill="#8897eb"/>
        <rect id="Rectangle_154065" data-name="Rectangle 154065" width="59.94" height="3.867" transform="translate(0.428 35.836)" fill="#fff"/>
        <rect id="Rectangle_154066" data-name="Rectangle 154066" width="52.246" height="3.867" transform="translate(18.441 11.215)" fill="#8897eb"/>
        <rect id="Rectangle_154067" data-name="Rectangle 154067" width="32.629" height="3.867" transform="translate(0.428 22.43)" fill="#fff"/>
        <rect id="Rectangle_154068" data-name="Rectangle 154068" width="27.764" height="3.867" transform="translate(42.923 22.43)" fill="#4c51ed"/>
        <rect id="Rectangle_154069" data-name="Rectangle 154069" width="40.958" height="3.867" transform="translate(0 59.887)" fill="#b08bfa"/>
        <rect id="Rectangle_154070" data-name="Rectangle 154070" width="38.621" height="3.867" transform="translate(84.474 21.43)" fill="#fff"/>
        <rect id="Rectangle_154071" data-name="Rectangle 154071" width="51.292" height="3.867" transform="translate(49.602 59.887)" fill="#8897eb"/>
        <rect id="Rectangle_154072" data-name="Rectangle 154072" width="84.474" height="3.867" transform="translate(0 48.672)" fill="#8897eb"/>
        <rect id="Rectangle_154073" data-name="Rectangle 154073" width="6.411" height="3.867" transform="translate(78.892 11.215)" fill="#fff"/>
        <rect id="Rectangle_154074" data-name="Rectangle 154074" width="6.412" height="3.867" transform="translate(93.165 11.215)" fill="#fff"/>
        <rect id="Rectangle_154075" data-name="Rectangle 154075" width="6.411" height="3.867" transform="translate(83.627 68.24)" fill="#fff"/>
        <rect id="Rectangle_154076" data-name="Rectangle 154076" width="72.471" height="3.867" transform="translate(0 68.24)" fill="#fff"/>
        <rect id="Rectangle_154077" data-name="Rectangle 154077" width="32.973" height="3.867" transform="translate(91.68 43.959)" fill="#4c51ed"/>
        <rect id="Rectangle_154078" data-name="Rectangle 154078" width="26.042" height="3.867" transform="translate(97.9 68.24)" fill="#4c51ed"/>
      </g>
      <g id="Group_203167" data-name="Group 203167" transform="translate(12.03 10.307)">
        <rect id="Rectangle_154079" data-name="Rectangle 154079" width="73.111" height="3.867" fill="#fff"/>
        <rect id="Rectangle_154080" data-name="Rectangle 154080" width="39.157" height="3.867" transform="translate(33.954 11.215)" fill="#4c51ed"/>
        <rect id="Rectangle_154081" data-name="Rectangle 154081" width="11.189" height="3.867" transform="translate(0 11.098)" fill="#fff"/>
        <rect id="Rectangle_154082" data-name="Rectangle 154082" width="11.189" height="3.867" transform="translate(16.522 11.098)" fill="#fff"/>
        <rect id="Rectangle_154083" data-name="Rectangle 154083" width="51.689" height="3.867" transform="translate(82.38 11.215)" fill="#fff"/>
        <rect id="Rectangle_154084" data-name="Rectangle 154084" width="51.689" height="3.867" transform="translate(82.38)" fill="#8897eb"/>
        <rect id="Rectangle_154085" data-name="Rectangle 154085" width="51.689" height="3.867" transform="translate(68.187 42.362)" fill="#4c51ed"/>
        <rect id="Rectangle_154086" data-name="Rectangle 154086" width="62.373" height="3.867" transform="translate(0 47.051)" fill="#fff"/>
        <rect id="Rectangle_154087" data-name="Rectangle 154087" width="73.111" height="3.867" transform="translate(0 22.43)" fill="#8897eb"/>
        <rect id="Rectangle_154088" data-name="Rectangle 154088" width="33.954" height="3.867" transform="translate(0 33.645)" fill="#8897eb"/>
        <rect id="Rectangle_154089" data-name="Rectangle 154089" width="28.891" height="3.867" transform="translate(44.22 33.645)" fill="#fff"/>
        <rect id="Rectangle_154090" data-name="Rectangle 154090" width="40.189" height="3.867" transform="translate(1.985 71.102)" fill="#4c51ed"/>
        <rect id="Rectangle_154091" data-name="Rectangle 154091" width="40.189" height="3.867" transform="translate(87.457 32.644)" fill="#fff"/>
        <rect id="Rectangle_154092" data-name="Rectangle 154092" width="53.374" height="3.867" transform="translate(51.17 71.102)" fill="#fff"/>
        <rect id="Rectangle_154093" data-name="Rectangle 154093" width="84.936" height="3.867" transform="translate(2.521 59.887)" fill="#fff"/>
        <rect id="Rectangle_154094" data-name="Rectangle 154094" width="6.672" height="3.867" transform="translate(81.649 22.43)" fill="#fff"/>
        <rect id="Rectangle_154095" data-name="Rectangle 154095" width="6.672" height="3.867" transform="translate(96.501 22.43)" fill="#fff"/>
        <rect id="Rectangle_154096" data-name="Rectangle 154096" width="6.672" height="3.867" transform="translate(86.576 79.455)" fill="#4c51ed"/>
        <rect id="Rectangle_154097" data-name="Rectangle 154097" width="72.982" height="3.867" transform="translate(1.985 79.455)" fill="#fff"/>
        <rect id="Rectangle_154098" data-name="Rectangle 154098" width="34.311" height="3.867" transform="translate(94.956 55.174)" fill="#8897eb"/>
        <rect id="Rectangle_154099" data-name="Rectangle 154099" width="27.1" height="3.867" transform="translate(101.428 79.455)" fill="#8897eb"/>
      </g>
    </g>
    <g id="Group_203171" data-name="Group 203171" transform="translate(509.874 304.665)">
      <path id="Rectangle_154100" data-name="Rectangle 154100" d="M7.976,0h80.03a7.976,7.976,0,0,1,7.976,7.976v174.31a7.976,7.976,0,0,1-7.976,7.976H7.975A7.975,7.975,0,0,1,0,182.285V7.976A7.976,7.976,0,0,1,7.976,0Z" transform="translate(3.898 4.539)" fill="#fff" opacity="0.76"/>
      <path id="Path_92857" data-name="Path 92857" d="M522.97,232.772H458.656A19.732,19.732,0,0,0,438.924,252.5V412.379a19.731,19.731,0,0,0,19.732,19.731H522.97A19.732,19.732,0,0,0,542.7,412.379V252.5A19.734,19.734,0,0,0,522.97,232.772ZM538.8,412.652a14.919,14.919,0,0,1-14.921,14.919H457.742a14.919,14.919,0,0,1-14.919-14.919V252.231a14.921,14.921,0,0,1,14.919-14.921h66.141A14.921,14.921,0,0,1,538.8,252.231Z" transform="translate(-438.924 -232.772)" fill="#0b055b"/>
      <g id="Group_203170" data-name="Group 203170" transform="translate(32.811 3.066)">
        <path id="Path_92858" data-name="Path 92858" d="M486.443,242.588h-21.8a8.177,8.177,0,0,1-8.177-8.177H494.62A8.177,8.177,0,0,1,486.443,242.588Z" transform="translate(-456.463 -234.411)" fill="#0b055b"/>
        <g id="Group_203169" data-name="Group 203169" transform="translate(8.036 2.155)">
          <rect id="Rectangle_154101" data-name="Rectangle 154101" width="15.793" height="1.283" transform="translate(0 0.266)" fill="#fff"/>
          <path id="Path_92859" data-name="Path 92859" d="M473.409,236.47a.908.908,0,1,1-.909-.907A.91.91,0,0,1,473.409,236.47Z" transform="translate(-451.325 -235.563)" fill="#fff"/>
        </g>
      </g>
    </g>
    <g id="Group_203172" data-name="Group 203172" transform="translate(520.489 387.132)">
      <rect id="Rectangle_154102" data-name="Rectangle 154102" width="61.945" height="54.202" rx="5" transform="translate(9.792 -42.132)" fill="#8897eb"/>
      <rect id="Rectangle_154107" data-name="Rectangle 154107" width="62" height="54" rx="5" transform="translate(9.511 21.868)" fill="#51a6e3"/>
    </g>
    <g id="Group_203175" data-name="Group 203175" transform="translate(806.334 351.784)">
      <rect id="Rectangle_154103" data-name="Rectangle 154103" width="91.91" height="91.91" rx="6.849" fill="#00c1a4"/>
      <text id="C_" data-name="C++" transform="translate(13.942 59.277)" fill="#fff" font-size="32" font-family="Montserrat-Bold, Montserrat" font-weight="700"><tspan x="0" y="0">C++</tspan></text>
    </g>
    <g id="Group_203176" data-name="Group 203176" transform="translate(390.802 370.057)">
      <path id="Rectangle_154104" data-name="Rectangle 154104" d="M7.457,0H92.6a7.456,7.456,0,0,1,7.456,7.456V92.6a7.457,7.457,0,0,1-7.457,7.457H7.457A7.457,7.457,0,0,1,0,92.6V7.457A7.457,7.457,0,0,1,7.457,0Z" fill="#f26284"/>
      <text id="PHP" transform="translate(17.886 60.545)" fill="#fff" font-size="28" font-family="Montserrat-Bold, Montserrat" font-weight="700"><tspan x="0" y="0">PHP</tspan></text>
    </g>
    <g id="Group_203177" data-name="Group 203177" transform="translate(770.641 213.48)">
      <rect id="Rectangle_154105" data-name="Rectangle 154105" width="82.905" height="82.905" rx="6.178" fill="#e2af1a"/>
      <text id="HTML" transform="translate(9.828 48.53)" fill="#fff" font-size="21" font-family="Montserrat-Bold, Montserrat" font-weight="700"><tspan x="0" y="0">HTML</tspan></text>
    </g>
    <g id="Group_203178" data-name="Group 203178" transform="translate(667.896 470.079)">
      <rect id="Rectangle_154106" data-name="Rectangle 154106" width="84.897" height="84.897" rx="6.327" fill="#1586cd"/>
      <text id="JAVA" transform="translate(10.158 47.991)" fill="#fff" font-size="23" font-family="Montserrat-Bold, Montserrat" font-weight="700"><tspan x="0" y="0">JAVA</tspan></text>
    </g>
    <text id="Android" transform="translate(540.688 375)" fill="#fff" font-size="8" font-family="Montserrat-Bold, Montserrat" font-weight="700"><tspan x="0" y="0">ANDROID</tspan></text>
    <text id="ios" transform="translate(550 441)" fill="#fff" font-size="12" font-family="Montserrat-Bold, Montserrat" font-weight="700"><tspan x="0" y="0">IOS</tspan></text>
  </g>
</svg>
